<svg width="40" height="40" viewBox="0 0 40 40" fill="none" xmlns="http://www.w3.org/2000/svg">
<path d="M36.5333 12.0832V12.2998L34.0999 21.2998C33.8124 22.3681 33.1786 23.3107 32.298 23.9803C31.4173 24.6498 30.3395 25.0084 29.2333 24.9998H16.4833C15.2316 25.0049 14.0235 24.5403 13.0978 23.6979C12.172 22.8555 11.5959 21.6964 11.4833 20.4498L10.4 8.18317C10.3624 7.76763 10.1704 7.38129 9.86178 7.10048C9.5532 6.81967 9.15051 6.66481 8.73328 6.6665H5.11662C4.67459 6.6665 4.25067 6.49091 3.93811 6.17835C3.62555 5.86579 3.44995 5.44186 3.44995 4.99984C3.44995 4.55781 3.62555 4.13389 3.93811 3.82133C4.25067 3.50877 4.67459 3.33317 5.11662 3.33317H8.73328C9.98496 3.32809 11.193 3.79267 12.1188 4.6351C13.0445 5.47754 13.6206 6.63656 13.7333 7.88317V8.33317H33.2166C33.6917 8.32944 34.1622 8.42733 34.5964 8.62027C35.0305 8.81321 35.4185 9.09674 35.7341 9.45186C36.0498 9.80697 36.2859 10.2255 36.4266 10.6793C36.5673 11.1331 36.6094 11.6118 36.5499 12.0832H36.5333Z" fill="#C0504D"/>
<path d="M15.1166 36.6667C17.4178 36.6667 19.2833 34.8012 19.2833 32.5C19.2833 30.1989 17.4178 28.3334 15.1166 28.3334C12.8154 28.3334 10.95 30.1989 10.95 32.5C10.95 34.8012 12.8154 36.6667 15.1166 36.6667Z" fill="#C0504D"/>
<path d="M28.4501 36.6667C30.7513 36.6667 32.6168 34.8012 32.6168 32.5C32.6168 30.1989 30.7513 28.3334 28.4501 28.3334C26.1489 28.3334 24.2834 30.1989 24.2834 32.5C24.2834 34.8012 26.1489 36.6667 28.4501 36.6667Z" fill="#C0504D"/>
</svg>
